<svg width="2560" height="1200" viewBox="0 0 2560 1200" fill="none" xmlns="http://www.w3.org/2000/svg">
  <defs>
    <linearGradient id="bgGradient" x1="0" y1="0" x2="0" y2="1">
      <stop offset="0" stop-color="#0b0015" />
      <stop offset="1" stop-color="#1a0033" />
    </linearGradient>
    <radialGradient id="vignette" cx="0.5" cy="0.5" r="0.8">
      <stop offset="0.45" stop-color="#000000" stop-opacity="0" />
      <stop offset="1" stop-color="#000000" stop-opacity="0.45" />
    </radialGradient>
    <linearGradient id="mapFill" x1="0" y1="0" x2="1" y2="0">
      <stop offset="0" stop-color="#e8e0ff" stop-opacity="0.9" />
      <stop offset="1" stop-color="#ffffff" stop-opacity="0.9" />
    </linearGradient>
    <filter id="softGlow" x="-20%" y="-20%" width="140%" height="140%" color-interpolation-filters="sRGB">
      <feGaussianBlur stdDeviation="18" result="blur" />
      <feMerge>
        <feMergeNode in="blur" />
        <feMergeNode in="SourceGraphic" />
      </feMerge>
    </filter>
    <filter id="nodeGlow" x="-40%" y="-40%" width="180%" height="180%" color-interpolation-filters="sRGB">
      <feGaussianBlur stdDeviation="14" result="glow" />
      <feMerge>
        <feMergeNode in="glow" />
        <feMergeNode in="SourceGraphic" />
      </feMerge>
    </filter>
    <linearGradient id="lineGradient" x1="0" y1="0" x2="1" y2="0">
      <stop offset="0" stop-color="#a855ff" stop-opacity="0.6" />
      <stop offset="1" stop-color="#a855ff" stop-opacity="0.95" />
    </linearGradient>
  </defs>
  <rect width="2560" height="1200" fill="url(#bgGradient)" />
  <rect width="2560" height="1200" fill="url(#vignette)" />
  <g opacity="0.8" filter="url(#softGlow)">
    <path fill="url(#mapFill)" d="M475 320c72-36 174-74 270-78 87-3 190 32 239 67 48 36 78 84 86 125 8 40-8 76-38 86-21 7-48 5-76-8-50-24-90-59-141-65-73-10-154 27-223 24-57-2-109-35-150-63-33-23-63-49-74-74-12-26-7-53 23-73 25-16 58-29 84-41Z" />
    <path fill="url(#mapFill)" d="M1190 310c52-20 130-36 202-28 95 10 195 56 243 105 44 44 38 93 6 132-38 46-114 76-172 84-77 10-160-9-219-47-52-34-83-81-89-123-6-38 12-74 29-99 13-19 48-18 0 0Z" />
    <path fill="url(#mapFill)" d="M1750 325c44-19 108-35 175-31 74 5 158 34 210 68 63 42 90 95 86 136-5 46-46 81-104 92-68 13-151-3-210-32-69-35-120-89-138-141-12-35-2-70 21-92 12-11 22-17 0 0Z" />
    <path fill="url(#mapFill)" d="M980 620c42-17 99-27 150-24 63 4 119 24 156 47 43 27 64 61 50 94-18 42-78 71-134 81-64 11-136 4-188-23-45-24-72-62-74-97-2-30 15-59 40-78Z" />
    <path fill="url(#mapFill)" d="M1460 660c64-26 154-39 223-28 82 13 147 53 171 96 22 39 9 78-25 104-45 35-122 51-196 42-72-8-142-39-183-78-30-29-43-64-32-95 9-25 27-38 42-41Z" />
    <path fill="url(#mapFill)" d="M2060 690c36-18 86-32 134-30 54 3 107 24 138 49 33 26 44 58 28 86-18 33-64 56-112 63-54 8-114-2-155-26-34-21-52-52-48-82 3-23 13-44 15-60Z" />
    <path fill="url(#mapFill)" d="M700 690c32-14 72-19 106-14 36 5 71 20 92 38 24 22 29 49 12 73-20 29-62 50-104 54-46 4-95-12-124-37-23-20-32-47-23-72 8-21 24-35 41-42Z" />
    <path fill="url(#mapFill)" d="M1870 870c28-13 64-19 96-15 36 5 70 22 92 44 26 26 30 56 10 80-23 28-71 46-118 47-46 1-92-15-119-40-22-21-29-48-20-72 7-18 24-32 59-44Z" />
  </g>
  <g stroke="url(#lineGradient)" stroke-width="2" stroke-linecap="round" stroke-linejoin="round" opacity="0.85">
    <path d="M280 230c90 48 160 92 240 124" stroke-dasharray="6 12" />
    <path d="M340 820c120-60 210-110 320-132" />
    <path d="M360 180c150-40 310-70 430-66" />
    <path d="M2140 200c-120 40-230 88-330 146" stroke-dasharray="10 14" />
    <path d="M2220 880c-140-44-270-90-360-150" />
    <path d="M1980 1040c-190-80-360-150-520-170" stroke-dasharray="6 10" />
    <path d="M520 1030c180-70 320-110 430-102" />
    <path d="M400 340c110 50 210 100 310 140" />
    <path d="M2100 320c-90 60-180 120-260 160" />
    <path d="M1940 250c-80 30-170 70-240 120" />
  </g>
  <g fill="#c699ff" filter="url(#nodeGlow)">
    <circle cx="260" cy="220" r="7" />
    <circle cx="360" cy="180" r="8" />
    <circle cx="430" cy="360" r="9" />
    <circle cx="640" cy="460" r="7" />
    <circle cx="540" cy="780" r="10" />
    <circle cx="760" cy="690" r="9" />
    <circle cx="560" cy="1030" r="8" />
    <circle cx="920" cy="940" r="7" />
    <circle cx="1940" cy="260" r="8" />
    <circle cx="2140" cy="200" r="9" />
    <circle cx="2300" cy="300" r="8" />
    <circle cx="2100" cy="520" r="7" />
    <circle cx="2010" cy="820" r="10" />
    <circle cx="2200" cy="880" r="8" />
    <circle cx="1920" cy="1040" r="9" />
  </g>
</svg>
